/* XPM */
static char *f38bc93eac55444dc4ffbc8859e55d20MOPJlBDWMW2BzmJ8[] = {
/* columns rows colors chars-per-pixel */
"37 32 15 1 ",
"  c None",
". c #010609",
"X c #0E0519",
"o c #051419",
"O c #1B0F29",
"+ c #3F0E33",
"@ c #352746",
"# c #273E46",
"$ c #5E154C",
"% c #354F5B",
"& c #4E6871",
"* c #86163A",
"= c #628797",
"- c #9EBAC6",
"; c #E5F2F7",
/* pixels */
"           ;;-   =---;;  ---;-       ",
"        ;;;;;-- ==--;;; --;;;;;      ",
"       -;;;;-==%o=#;;%%%o---;;;;     ",
"      -;;--==-%%oo####%%oo#---;;---  ",
"     &----=-==%@Oo####%%#o#%=---;;-- ",
"     &&----==%@OOo---o#%%oo##=-;;;;; ",
"     &%&--=-%@OOoo---#o%o#ooo%--;;;; ",
"     o%&&--=%OOoo=--%%#o%%%oo#=---#o ",
"      o%o%%%ooooo=%%%%ooo%%%%oo%%#o% ",
"      oooooo=&==oo#%%%#....%%%o%%oo% ",
"     &&&==o=&=&==oo#%..OOO..%#o%oo%% ",
"     &&===%%&&&=%%%o..OOOO@.#oooo%%  ",
"     &======OOO&%%%#...OO@..ooo===-  ",
"     &====%o.OO@&%##o..O@....ooo=--  ",
"     &&==%%#..OO+&#ooo.....==-o.oo=  ",
"     %&&&%%%##OO@+#ooo....===--.oo%  ",
"     oo=====%ooOO@ooo....#&=&==.OO%  ",
"     o=====&ooo.O.ooo.....#&=&=-.O%  ",
"     .o===&%oo.........%%..&&&==-%%  ",
"     =--=%%oo+OOO+....&%%%%.###===   ",
"    =----=OO++OOO@+...oo&%%%..OO%%   ",
"    &-----=+++OO@.....oooo&++XX%%    ",
"    &&&---=++OO@..$*...ooO+OOXX++    ",
"    OO&&%%%+...@.+$$*.ooOOOXXX+$**   ",
"     OOOO%....@OX.+$$.+$$$*OX+$$$*   ",
"      .OO%.$*OOO.XXXO.++$$$*+$$$$*   ",
"     ++*..$$$*O.OOXXOO..++$$+$$$*    ",
"     $$$*.+$$$*.OOOOO+$$$*OOO$$*     ",
"     +$$$*..+$$*O$*OOO+$$$*OOO*      ",
"      +$$$..+$$$+$*OO ++$$$*OO       ",
"        +$.. +$$ +$      +$$$        ",
"                                     "
};
